<svg xmlns="http://www.w3.org/2000/svg" xmlns:xlink="http://www.w3.org/1999/xlink" fill="#ffffff" version="1.1" x="0px" y="0px" viewBox="0 0 1000 1000" enable-background="new 0 0 1000 1000" xml:space="preserve">
    <g><path d="M45.3,546c-7,0-14-2-20.1-6.4c-16-11.1-20-33.1-8.8-49.1l201.4-289.3c11.1-16,33.1-20,49.1-8.8c16,11.2,20,33.1,8.8,49.1L74.2,530.9C67.4,540.7,56.5,546,45.3,546z"/>
        <path d="M246.7,814c-10.7,0-21.3-4.9-28.2-14L17.1,531.8c-11.7-15.6-8.5-37.7,7.1-49.4c15.6-11.6,37.7-8.5,49.4,7.1l201.4,268c11.7,15.6,8.5,37.7-7.1,49.4C261.6,811.7,254.1,814,246.7,814z"/><path d="M954.7,546c-11.1,0-22.1-5.3-28.9-15.1L724.3,241.5c-11.2-16-7.3-38,8.8-49.1c16.2-11.2,38-7.3,49.1,8.8l201.4,289.3c11.2,16,7.3,38-8.8,49.1C968.7,543.9,961.7,546,954.7,546z"/><path d="M753.3,814c-7.3,0-14.8-2.3-21.2-7.1c-15.6-11.7-18.7-33.8-7-49.4l201.4-268c11.6-15.6,33.8-18.7,49.4-7.1c15.6,11.7,18.7,33.8,7,49.4L781.5,799.9C774.6,809.1,764,814,753.3,814z"/><path d="M396.4,814c-4,0-8.1-0.7-12.1-2.1c-18.3-6.7-27.7-27-21-45.2l203.1-557.4c6.7-18.3,26.9-27.7,45.2-21c18.4,6.7,27.8,26.9,21.1,45.2L429.6,790.8C424.4,805.1,410.8,814,396.4,814z"/></g>
</svg>